<?xml version="1.0" standalone="no"?>
<!DOCTYPE svg PUBLIC "-//W3C//DTD SVG 20010904//EN"
 "http://www.w3.org/TR/2001/REC-SVG-20010904/DTD/svg10.dtd">
<svg version="1.0" xmlns="http://www.w3.org/2000/svg"
 width="500.000000pt" height="500.000000pt" viewBox="0 0 500.000000 500.000000"
 preserveAspectRatio="xMidYMid meet">

<g transform="translate(0.000000,500.000000) scale(0.100000,-0.100000)"
fill="#49716E" stroke="none">
<path d="M1006 4767 c-63 -35 -99 -88 -104 -150 -3 -45 4 -79 47 -208 28 -85
51 -158 51 -163 0 -5 -55 -66 -123 -135 -141 -145 -209 -228 -300 -367 -186
-285 -300 -588 -353 -939 -21 -141 -21 -486 0 -629 16 -105 47 -250 66 -311
57 -180 82 -242 150 -380 251 -509 670 -901 1191 -1115 127 -52 192 -73 341
-111 109 -27 168 -36 168 -24 0 3 -20 60 -44 128 -24 67 -57 160 -73 207 l-28
85 -118 42 c-640 227 -1102 755 -1245 1423 -24 115 -26 144 -27 365 0 192 4
260 19 340 52 281 175 567 340 788 85 114 169 208 177 199 4 -4 13 -29 22 -57
97 -315 884 -2676 1016 -3050 18 -49 39 -110 48 -135 23 -70 84 -221 104 -262
25 -50 83 -95 140 -108 40 -10 57 -9 97 4 77 26 110 70 182 241 60 141 1000
2953 1112 3325 6 19 14 39 18 43 10 11 135 -136 217 -255 74 -106 190 -336
227 -449 135 -411 136 -819 4 -1214 -136 -407 -405 -755 -773 -998 -136 -90
-356 -191 -505 -232 l-55 -15 -33 -98 c-19 -53 -49 -140 -67 -192 -54 -154
-53 -141 -3 -134 57 8 257 58 333 82 255 83 515 223 732 394 43 34 132 116
198 182 282 285 472 611 578 997 33 118 39 148 68 314 8 42 13 162 13 300 -1
193 -4 251 -23 360 -34 193 -97 411 -162 553 -16 34 -29 64 -29 66 0 2 -25 50
-56 107 -109 202 -244 379 -418 551 l-110 109 52 157 c55 168 62 222 36 275
-78 155 -280 156 -356 2 -9 -16 -21 -48 -28 -70 -14 -48 -140 -436 -250 -770
-43 -132 -165 -503 -270 -825 -158 -481 -321 -971 -657 -1973 -27 -80 -37 -92
-46 -55 -3 13 -60 183 -126 378 -67 195 -205 607 -307 915 -237 712 -210 633
-429 1300 -103 314 -225 687 -272 830 -46 142 -91 271 -98 285 -47 90 -172
127 -259 77z"/>
<path d="M2235 4775 c-217 -28 -446 -89 -616 -162 -114 -50 -109 -26 -45 -221
31 -94 59 -178 62 -186 4 -11 21 -7 82 21 191 88 417 145 653 165 299 25 652
-37 932 -166 53 -24 79 -31 82 -23 2 7 29 90 60 185 66 202 73 180 -70 236
-204 79 -399 128 -624 156 -112 13 -391 11 -516 -5z"/>
</g>
</svg>
